<svg height="512pt" viewBox="-9 0 512 512.02209" width="512pt" xmlns="http://www.w3.org/2000/svg"><path d="m98.996094 317.441406c-3.769532-2.828125-9.117188-2.066406-11.945313 1.707032l-18.773437 25.027343-18.773438-25.027343c-1.828125-2.441407-4.820312-3.71875-7.847656-3.355469-3.027344.367187-5.628906 2.316406-6.824219 5.121093-1.199219 2.804688-.808593 6.035157 1.019531 8.472657l21.757813 29.011719-21.757813 29.015624c-1.828124 2.4375-2.21875 5.667969-1.019531 8.472657 1.195313 2.800781 3.796875 4.753906 6.824219 5.117187 3.027344.367188 6.019531-.910156 7.847656-3.351562l18.773438-25.027344 18.773437 25.027344c2.828125 3.769531 8.175781 4.535156 11.945313 1.707031 3.773437-2.828125 4.535156-8.175781 1.707031-11.945313l-21.757813-29.015624 21.757813-29.011719c2.828125-3.769531 2.066406-9.117188-1.707031-11.945313zm0 0"/><path d="m175.796875 317.441406c-3.769531-2.828125-9.117187-2.066406-11.945313 1.707032l-18.773437 25.027343-18.773437-25.027343c-2.828126-3.773438-8.175782-4.535157-11.945313-1.707032-3.773437 2.828125-4.535156 8.175782-1.707031 11.945313l21.757812 29.011719-21.757812 29.015624c-2.828125 3.769532-2.066406 9.117188 1.707031 11.945313 3.769531 2.828125 9.117187 2.0625 11.945313-1.707031l18.773437-25.027344 18.773437 25.027344c2.828126 3.769531 8.175782 4.535156 11.945313 1.707031s4.535156-8.175781 1.707031-11.945313l-21.757812-29.015624 21.757812-29.011719c1.359375-1.8125 1.941406-4.085938 1.621094-6.328125-.320312-2.238282-1.515625-4.261719-3.328125-5.617188zm0 0"/><path d="m59.746094 230.398438c2.261718 0 4.429687-.898438 6.03125-2.5l17.066406-17.066407c3.234375-3.347656 3.1875-8.667969-.105469-11.960937-3.289062-3.292969-8.613281-3.339844-11.960937-.105469l-17.066406 17.066406c-2.4375 2.441407-3.167969 6.113281-1.847657 9.300781 1.320313 3.1875 4.429688 5.265626 7.882813 5.265626zm0 0"/><path d="m110.945312 179.199219c0 4.714843-3.820312 8.535156-8.535156 8.535156-4.710937 0-8.53125-3.820313-8.53125-8.535156 0-4.710938 3.820313-8.53125 8.53125-8.53125 4.714844 0 8.535156 3.820312 8.535156 8.53125zm0 0"/><path d="m422.410156 275.199219c-16.554687.261719-32.949218 3.289062-48.503906 8.960937-3.097656 1.007813-5.972656 1.9375-8.53125 2.636719-.050781-3.320313-.292969-6.636719-.726562-9.933594l18.875-9.460937c3.875.445312 7.769531.664062 11.667968.65625 17.472656 0 45.96875-4.269532 58.707032-29.730469 4.914062-9.8125 24.902343-22.570313 36.34375-28.3125 3.445312-1.726563 5.308593-5.550781 4.539062-9.328125-.765625-3.777344-3.96875-6.570312-7.816406-6.820312-54.980469-3.410157-90.921875 5.675781-106.777344 27.101562-6.957031 9.496094-9.824219 21.378906-7.960938 33l-12.066406 6.050781c-.890625-2.132812-1.945312-4.191406-3.15625-6.160156-1.660156-2.601563-4.59375-4.101563-7.675781-3.925781-3.078125.175781-5.824219 1.996094-7.179687 4.765625-1.355469 2.769531-1.113282 6.058593.636718 8.597656 3.90625 6.875 5.847656 14.691406 5.617188 22.59375-1.707032-.535156-3.550782-1.109375-5.472656-1.703125-15.558594-5.683594-31.957032-8.71875-48.519532-8.988281-1.425781 0-2.839844.144531-4.265625.257812v-35.925781c-.035156-13.550781-5.410156-26.542969-14.960937-36.15625l-61.839844-61.839844v-7.332031c11.007812 4.09375 23.304688 2.742187 33.160156-3.644531l12.007813 12.007812c3.347656 3.234375 8.671875 3.1875 11.960937-.105468 3.292969-3.289063 3.339844-8.613282.105469-11.960938l-12.007813-12.007812c3.882813-6.082032 5.953126-13.144532 5.972657-20.359376-.023438-18.203124-12.804688-33.894531-30.625-37.605468-1.097657-.511719-2.292969-.785156-3.507813-.792969h-34.132812v-8.535156c9.425781 0 17.066406-7.640625 17.066406-17.066407v-17.066406c0-9.425781-7.640625-17.066406-17.066406-17.066406h-102.398438c-9.425781 0-17.066406 7.640625-17.066406 17.066406v17.066406c0 9.425782 7.640625 17.066407 17.066406 17.066407v29.015625c-.003906 1.679687-.5 3.324218-1.433594 4.726562l-11.367187 16.964844c-2.796875 4.203125-4.28125 9.140625-4.265625 14.191406v25.4375l-61.84375 61.839844c-9.546875 9.613281-14.921875 22.605469-14.9570312 36.15625v229.800781c.0273437 23.554688 19.1132812 42.640625 42.6640622 42.667969h204.800781c13.050782.015625 25.378907-5.996094 33.402344-16.289062 2.890625 2.386718 5.945313 4.570312 9.136719 6.535156 15.839844 11.054687 36.355469 12.867187 53.890625 4.761718 4.59375-2.003906 9.5-3.203124 14.503906-3.542968 5.003906.339844 9.910156 1.539062 14.507813 3.542968 7.28125 3.039063 15.058593 4.730469 22.945312 4.992188 11.023438-.324219 21.734375-3.710938 30.941407-9.777344 32.90625-19.722656 68.140624-78.796875 68.140624-135.289062 0-57.421875-36.882812-91.734375-72.535156-91.734375zm-28.382812-44.277344c6.992187-9.277344 23.75-19.484375 63.507812-20.617187-7.699218 5.351562-14.148437 12.300781-18.910156 20.375-10.136719 20.292968-37.804688 20.855468-49.664062 20.054687-.96875-7.011719.851562-14.128906 5.066406-19.8125zm-169.136719 109.226563-3.011719 3.984374-18.773437-24.984374c-2.828125-3.773438-8.175781-4.535157-11.949219-1.707032-3.769531 2.828125-4.53125 8.175782-1.707031 11.945313l21.761719 29.011719-21.761719 29.015624c-2.824219 3.769532-2.0625 9.117188 1.707031 11.945313 3.773438 2.828125 9.121094 2.0625 11.949219-1.707031l18.773437-25.070313.21875.289063c1.699219 27.9375 9.8125 55.105468 23.714844 79.394531h-228.734375v-187.730469h256v14.804688c-25.175781 10.96875-43.242187 33.75-48.1875 60.765625zm22.585937-242.015626c0 11.78125-9.550781 21.332032-21.332031 21.332032-5.785156.035156-11.324219-2.335938-15.292969-6.542969-3.800781-3.996094-5.957031-9.273437-6.039062-14.789063 0-11.78125 9.550781-21.332031 21.332031-21.332031s21.332031 9.550781 21.332031 21.332031zm-153.597656-81.066406h102.398438v17.066406h-102.398438zm0 99.03125c0-1.683594.5-3.328125 1.433594-4.730468l11.363281-17.003907c2.789063-4.191406 4.273438-9.117187 4.269531-14.148437v-29.015625h68.265626v8.535156c0 8.664063 6.488281 15.953125 15.09375 16.953125-1.230469 1.859375-2.296876 3.820312-3.179688 5.863281-.265625.589844-.488281 1.203125-.71875 1.808594-.609375 1.574219-1.109375 3.1875-1.5 4.832031-.164062.65625-.335938 1.296875-.453125 1.960938-.453125 2.300781-.691406 4.636718-.707031 6.980468.054687 7.601563 2.339844 15.019532 6.570312 21.332032.304688.460937.628906.90625.953125 1.351562.324219.441406.640625.972656 1.007813 1.414063v14.304687h-102.398438zm-66.84375 99.34375 61.84375-61.839844h112.398438l61.84375 61.839844c6.355468 6.40625 9.933594 15.0625 9.957031 24.089844v7.933594h-256v-7.933594c.023437-9.027344 3.601563-17.683594 9.957031-24.089844zm220.441406 279.492188h-204.800781c-14.136719 0-25.597656-11.460938-25.597656-25.601563h239.5625c3.625 5.066407 7.550781 9.910157 11.753906 14.507813-4.699219 6.941406-12.535156 11.097656-20.917969 11.09375zm170.539063-7.3125c-11.457031 8.351562-26.605469 9.632812-39.304687 3.328125-6.4375-2.726563-13.316407-4.265625-20.300782-4.550781-6.984375.285156-13.863281 1.824218-20.300781 4.550781-12.699219 6.296875-27.84375 5.015625-39.304687-3.328125-28.285157-16.992188-59.859376-70.734375-59.859376-120.6875 0-46.738282 28.203126-74.667969 55.464844-74.667969 14.761719.265625 29.375 3.007813 43.230469 8.109375 5.796875 2.117188 11.804687 3.617188 17.921875 4.46875.144531 0 .253906.101562.40625.113281h.667969c.070312-.011719.140625-.027343.210937-.042969.523438 0 1.058594.128907 1.570313.128907 7.121093-.511719 14.125-2.09375 20.773437-4.695313 13.851563-5.101562 28.464844-7.839844 43.226563-8.105468 27.308593 0 55.46875 27.929687 55.46875 74.664062-.007813 49.980469-31.582031 103.722656-59.871094 120.714844zm0 0"/><path d="m277.34375 346.804688c2.054688-4.21875.320312-9.300782-3.882812-11.382813-4.203126-2.082031-9.296876-.382813-11.410157 3.804687-.917969 1.851563-22.183593 46.128907 21.019531 110.933594 2.648438 3.828125 7.875 4.824219 11.75 2.242188 3.871094-2.578125 4.960938-7.789063 2.449219-11.707032-37.324219-55.945312-20.726562-92.261718-19.925781-93.890624zm0 0"/><path d="m291.851562 322.558594c0 4.714844-3.820312 8.535156-8.535156 8.535156-4.710937 0-8.53125-3.820312-8.53125-8.535156 0-4.710938 3.820313-8.53125 8.53125-8.53125 4.714844 0 8.535156 3.820312 8.535156 8.53125zm0 0"/></svg>