<svg xmlns="http://www.w3.org/2000/svg" width="415.92" height="415.92" viewBox="0 0 415.92 415.92">
  <g id="TLK_Logo_Vektor" transform="translate(0 -0.08)">
    <g id="Group_1" data-name="Group 1" transform="translate(0 0.08)">
      <path id="Path_4" data-name="Path 4" d="M224.7,379.909l11.418-1.5,13.981,33.237a206.624,206.624,0,0,0,23.016-6.15l-4.474-35.782,10.641-4.4,22.1,28.48a207.626,207.626,0,0,0,20.63-11.927l-13.572-33.37,9.139-7.008,28.687,21.759A209.132,209.132,0,0,0,363.13,346.4l-21.734-28.7,7.012-9.135,33.361,13.6a208.129,208.129,0,0,0,11.945-20.62l-28.461-22.127,4.41-10.639,35.778,4.505a206.217,206.217,0,0,0,6.168-23.014l-33.221-14.006,1.506-11.418,35.674-4.9c.226-3.964.352-7.956.352-11.977,0-3.981-.123-7.934-.344-11.86L379.9,191.177l-1.5-11.419,33.232-13.989a206.345,206.345,0,0,0-6.156-23.015L369.7,147.238l-4.4-10.64,28.474-22.112a207.794,207.794,0,0,0-11.933-20.628L348.466,107.44l-7.01-9.137L363.207,69.61a209.2,209.2,0,0,0-16.854-16.859L317.655,74.5l-9.135-7.013,13.589-33.363a207.6,207.6,0,0,0-20.623-11.938L279.367,50.647l-10.64-4.408,4.495-35.779A206.537,206.537,0,0,0,250.208,4.3l-14,33.228-11.418-1.5L219.879.348C215.934.124,211.962,0,207.96,0c-3.921,0-7.815.118-11.684.333L191.323,36,179.9,37.5,165.94,4.248a206.437,206.437,0,0,0-23.019,6.14l4.455,35.783-10.645,4.4L114.644,22.076A207.536,207.536,0,0,0,94.006,33.99L107.56,67.368l-9.144,7L69.742,52.6a209.11,209.11,0,0,0-16.874,16.84l21.72,28.716-7.019,9.133L34.216,93.663a207.859,207.859,0,0,0-11.957,20.613l28.45,22.144-4.416,10.638-35.778-4.527a206.254,206.254,0,0,0-6.179,23.01l33.213,14.024-1.511,11.418L.359,195.866C.129,199.869,0,203.9,0,207.96c0,3.942.12,7.855.337,11.744l35.67,4.942,1.5,11.42L4.261,250.037a206.661,206.661,0,0,0,6.146,23.019l35.782-4.466,4.4,10.643L22.1,301.329a207.666,207.666,0,0,0,11.921,20.635L67.4,308.4l7.006,9.141-21.768,28.68A209.038,209.038,0,0,0,69.48,363.091l28.709-21.726,9.132,7.014L93.713,381.737a207.918,207.918,0,0,0,20.617,11.951l22.135-28.455,10.637,4.412-4.515,35.779A206.351,206.351,0,0,0,165.6,411.6l14.015-33.218,11.417,1.509,4.894,35.677c3.984.227,7.994.355,12.035.355,3.962,0,7.895-.122,11.8-.339ZM63.97,207.96A143.99,143.99,0,1,1,207.96,351.95,143.991,143.991,0,0,1,63.97,207.96Z" fill="#456db4"/>
    </g>
    <g id="Group_2" data-name="Group 2" transform="translate(73.434 152.416)">
      <path id="Path_5" data-name="Path 5" d="M55.646,13.339H6.79A135.229,135.229,0,0,0,2.21,80H55.646v67l12,20h16V0l-22,1-6,12.339" fill="#456db4"/>
    </g>
    <g id="Group_3" data-name="Group 3" transform="translate(258.84 152.416)">
      <path id="Path_6" data-name="Path 6" d="M28,13.339H76.855a134.319,134.319,0,0,1,6.791,42.285A135.2,135.2,0,0,1,81.436,80H28v67L16,167H0V0L22,1l6,12.339" fill="#456db4"/>
    </g>
    <g id="Group_4" data-name="Group 4" transform="translate(163.217 73.552)">
      <path id="Path_7" data-name="Path 7" d="M82.414,149.864v-20c0-9.089-11.4-21-11.4-21V3.24C61.582,1.133,54.779.011,44.714,0H44.7C34.635.011,27.832,1.133,18.4,3.24V108.864S7,120.775,7,129.864v20s-2.008,9-7,9v74H12v-74s8.712-23.238,32.707-23.243,32.707,23.243,32.707,23.243v74h12v-74c-4.921,0-7-9-7-9" fill="#456db4"/>
    </g>
    <g id="Group_5" data-name="Group 5" transform="translate(182.258 214.416)">
      <path id="Path_8" data-name="Path 8" d="M51.4,17C46.4,6.864,36.766,0,25.7,0S5.006,6.864,0,17H51.4" fill="#456db4"/>
    </g>
    <g id="Group_6" data-name="Group 6" transform="translate(182.258 316.415)">
      <path id="Path_9" data-name="Path 9" d="M0,0C5.005,10.136,14.637,17,25.7,17S46.4,10.136,51.4,0H0" fill="#456db4"/>
    </g>
    <g id="Group_7" data-name="Group 7" transform="translate(179.272 234.773)">
      <path id="Path_10" data-name="Path 10" d="M57.375,14.251a2.7,2.7,0,0,1-2.543,2.835H2.543A2.7,2.7,0,0,1,0,14.251V2.835A2.7,2.7,0,0,1,2.543,0H54.832a2.7,2.7,0,0,1,2.543,2.835V14.251" fill="#456db4"/>
    </g>
    <g id="Group_8" data-name="Group 8" transform="translate(179.272 275.573)">
      <path id="Path_11" data-name="Path 11" d="M57.375,14.251a2.7,2.7,0,0,1-2.543,2.835H2.543A2.7,2.7,0,0,1,0,14.251V2.835A2.7,2.7,0,0,1,2.543,0H54.832a2.7,2.7,0,0,1,2.543,2.835V14.251" fill="#456db4"/>
    </g>
    <g id="Group_9" data-name="Group 9" transform="translate(179.272 295.972)">
      <path id="Path_12" data-name="Path 12" d="M57.375,14.251a2.7,2.7,0,0,1-2.543,2.835H2.543A2.7,2.7,0,0,1,0,14.251V2.835A2.7,2.7,0,0,1,2.543,0H54.832a2.7,2.7,0,0,1,2.543,2.835V14.251" fill="#456db4"/>
    </g>
    <g id="Group_10" data-name="Group 10" transform="translate(179.272 255.172)">
      <path id="Path_13" data-name="Path 13" d="M57.375,14.251a2.7,2.7,0,0,1-2.543,2.835H2.543A2.7,2.7,0,0,1,0,14.251V2.835A2.7,2.7,0,0,1,2.543,0H54.832a2.7,2.7,0,0,1,2.543,2.835V14.251" fill="#456db4"/>
    </g>
  </g>
</svg>
